<svg width="107" height="95" fill="none" xmlns="http://www.w3.org/2000/svg"><path d="M85.156 56.125a15.56 15.56 0 01-.844.438c-.5.25-1.156.52-1.968.812-.813.292-1.74.552-2.781.781a13.88 13.88 0 01-3.25.375c-1.834 0-3.48-.323-4.938-.968a10.381 10.381 0 01-3.719-2.75c-1-1.167-1.77-2.584-2.312-4.25-.542-1.646-.813-3.48-.813-5.5 0-1.938.24-4.063.719-6.376a73.409 73.409 0 011.875-7.187c.77-2.458 1.635-4.917 2.594-7.375.979-2.458 1.958-4.792 2.937-7 1-2.23 1.948-4.26 2.844-6.094a157.99 157.99 0 012.313-4.625 607.158 607.158 0 00-4 4.625A270.94 270.94 0 0069 16.75a352.535 352.535 0 00-5.281 6.625 302.301 302.301 0 00-5.563 7.313 299.365 299.365 0 00-5.531 7.78 188.172 188.172 0 00-5.25 8l-1.5-.5c.313-3.395.823-6.76 1.531-10.093a145.05 145.05 0 012.438-9.656c.916-3.104 1.875-6.01 2.875-8.719a173.33 173.33 0 012.906-7.313 101.65 101.65 0 00-4.188 6.25 544.386 544.386 0 00-4.187 6.907 474.44 474.44 0 01-4.375 7.125 117.11 117.11 0 01-4.688 6.875 67.728 67.728 0 01-5.156 6.156 35.405 35.405 0 01-5.75 4.938 26.674 26.674 0 01-6.5 3.343C18.49 52.594 16.031 53 13.406 53c-2.02 0-3.854-.302-5.5-.906-1.646-.604-3.062-1.438-4.25-2.5A10.661 10.661 0 01.97 45.906C.323 44.49 0 42.958 0 41.313c0-1.605.26-3.053.781-4.344A11.702 11.702 0 012.812 33.5a13.232 13.232 0 012.97-2.625 18.904 18.904 0 013.593-1.844 21.13 21.13 0 017.469-1.406c2.416 0 4.729.292 6.937.875 2.209.563 4.334 1.573 6.375 3.031l-1.093 1.219a24.59 24.59 0 00-.813-.563c-.52-.374-1.27-.78-2.25-1.218-.98-.438-2.198-.834-3.656-1.188-1.438-.354-3.084-.531-4.938-.531-1.791 0-3.531.24-5.218.719-1.667.479-3.146 1.208-4.438 2.187-1.27.959-2.292 2.177-3.063 3.657-.77 1.458-1.156 3.177-1.156 5.156 0 1.416.271 2.729.813 3.937a9.547 9.547 0 002.312 3.125c.98.896 2.157 1.594 3.532 2.094 1.374.5 2.895.75 4.562.75 2.5 0 4.896-.531 7.188-1.594 2.291-1.062 4.5-2.5 6.625-4.312 2.125-1.813 4.166-3.927 6.125-6.344a102.747 102.747 0 005.687-7.656 175.51 175.51 0 005.313-8.282 1609.75 1609.75 0 014.968-8.187 215.028 215.028 0 014.688-7.406c1.52-2.313 3.01-4.302 4.468-5.969l1.407.844a590.884 590.884 0 00-2.375 7.375c-.667 2.104-1.25 3.958-1.75 5.562-.48 1.604-.896 2.99-1.25 4.156a271.043 271.043 0 00-.875 3.125c-.25.917-.48 1.75-.688 2.5-.187.73-.385 1.459-.593 2.188-.188.73-.407 1.5-.657 2.313-.25.812-.552 1.76-.906 2.843-.354 1.063-.77 2.302-1.25 3.719a392.312 392.312 0 01-1.75 4.969c1.75-2.646 3.542-5.25 5.375-7.813a346.446 346.446 0 015.531-7.437 404.637 404.637 0 015.375-6.875 557.56 557.56 0 015-6.094 629.181 629.181 0 014.344-5.094 244.548 244.548 0 013.469-3.937c.979-1.084 1.74-1.927 2.281-2.531.563-.605.854-.917.875-.938l1.313.969c-1.23 3.041-2.448 6.093-3.657 9.156a1262.94 1262.94 0 00-3.5 8.906 411.658 411.658 0 00-3.094 8.375 159.142 159.142 0 00-2.5 7.563c-.708 2.333-1.27 4.468-1.687 6.406-.396 1.917-.594 3.563-.594 4.938 0 1.624.188 3.093.563 4.406.396 1.312.958 2.427 1.687 3.343a7.136 7.136 0 002.688 2.094c1.083.5 2.302.75 3.656.75 1.02 0 2.01-.114 2.969-.343.979-.23 1.844-.48 2.594-.75.75-.271 1.354-.521 1.812-.75.458-.23.698-.344.719-.344l.812 1.406z" fill="#000"/><path d="M104.748 57.752c0-1.12-.512-2.176-1.536-3.168-1.472-1.408-3.504-2.112-6.096-2.112-2.272 0-4.784.496-7.536 1.488-1.44.512-2.688 1.216-3.744 2.112-1.632 1.408-2.448 2.816-2.448 4.224 0 1.888 1.2 3.584 3.6 5.088.896.544 2.688 1.44 5.376 2.688 2.72 1.216 4.704 2.208 5.952 2.976 1.888 1.152 3.184 2.384 3.888 3.696.736 1.312 1.104 2.528 1.104 3.648 0 1.6-.528 3.232-1.584 4.896-1.856 2.976-4.576 5.536-8.16 7.68-4.128 2.496-9.104 3.744-14.928 3.744-5.6 0-10.048-1.424-13.344-4.272-2.56-2.176-3.84-4.976-3.84-8.4 0-2.176.784-4.576 2.352-7.2 1.6-2.624 3.552-4.48 5.856-5.568.48-.192.832-.256 1.056-.192.256.064.064.368-.576.912-1.376 1.088-2.48 2.288-3.312 3.6-1.792 2.816-2.688 5.872-2.688 9.168 0 2.176.608 4.08 1.824 5.712 2.176 2.912 5.952 4.56 11.328 4.944.608.064 1.504.096 2.688.096 1.216 0 2.848-.224 4.896-.672 2.08-.416 4.08-1.12 6-2.112 4.128-2.176 6.8-4.992 8.016-8.448.384-1.024.576-2.016.576-2.976 0-2.176-.976-4.096-2.928-5.76-1.056-.832-3.216-1.936-6.48-3.312-3.232-1.408-5.408-2.48-6.528-3.216-2.464-1.664-3.696-3.632-3.696-5.904 0-1.984 1.104-3.92 3.312-5.808 3.168-2.688 7.648-4.032 13.44-4.032 2.72 0 4.928.416 6.624 1.248 1.728.8 2.784 2.016 3.168 3.648.064.32.096.64.096.96 0 1.248-.576 2.368-1.728 3.36-.8.64-1.872 1.152-3.216 1.536-.576.16-.896.096-.96-.192-.064-.416.336-.672 1.2-.768 1.536-.192 2.48-.96 2.832-2.304.096-.352.144-.688.144-1.008z" fill="#000"/></svg>